<?xml version="1.0" standalone="no"?>
<!DOCTYPE svg PUBLIC "-//W3C//DTD SVG 20010904//EN"
 "http://www.w3.org/TR/2001/REC-SVG-20010904/DTD/svg10.dtd">
<svg version="1.0" xmlns="http://www.w3.org/2000/svg"
 width="2560.000000pt" height="401.000000pt" viewBox="0 0 2560.000000 401.000000"
 preserveAspectRatio="xMidYMid meet">

<g transform="translate(0.000000,401.000000) scale(0.100000,-0.100000)"
fill="#000000" stroke="none">
<path d="M1699 3903 c-38 -19 -294 -242 -831 -720 -619 -553 -780 -702 -797
-736 -21 -43 -21 -48 -21 -1098 0 -1178 -4 -1107 70 -1192 23 -25 62 -54 92
-68 l53 -24 1545 -3 c1704 -3 1597 -6 1696 60 33 23 57 50 76 87 l28 53 0
1075 0 1075 -22 40 c-26 47 -111 123 -986 883 -398 346 -650 558 -680 572 -69
33 -153 31 -223 -4z m784 -1088 l656 -570 0 -867 1 -868 -1310 0 -1310 0 0
868 1 867 497 437 c273 241 565 498 647 572 83 74 153 134 156 133 3 -1 301
-258 662 -572z"/>
<path d="M1511 2189 l-311 -270 0 -410 0 -409 620 0 620 0 0 409 0 408 -272
239 c-150 132 -289 254 -309 272 l-37 32 -311 -271z"/>
<path d="M15000 2644 c-309 -21 -563 -82 -762 -181 -123 -61 -245 -180 -301
-293 -119 -238 -77 -520 106 -716 60 -65 84 -82 171 -124 109 -52 206 -81 361
-106 83 -14 192 -17 650 -19 l551 -1 49 -25 c158 -79 162 -329 7 -408 -194
-99 -670 -133 -1036 -75 -193 31 -523 154 -693 259 l-42 26 -39 -53 c-21 -29
-85 -120 -142 -202 -99 -142 -103 -149 -84 -163 44 -33 205 -130 291 -175 225
-119 479 -180 888 -213 444 -37 768 7 1064 141 160 73 320 200 395 312 58 88
82 152 97 255 46 316 -148 593 -519 741 -174 69 -235 76 -729 77 -561 0 -652
6 -723 45 -100 54 -136 153 -86 238 65 111 253 152 686 149 280 -1 444 -18
605 -63 99 -28 267 -96 309 -125 11 -8 24 -15 28 -15 6 0 236 314 269 367 11
19 10 24 -12 42 -45 38 -154 99 -242 135 -172 71 -386 122 -657 156 -94 11
-374 20 -460 14z"/>
<path d="M7560 2594 c-92 -30 -99 -35 -163 -122 -118 -160 -361 -533 -741
-1136 -275 -436 -646 -1035 -653 -1052 -4 -12 40 -14 283 -14 159 0 298 3 309
6 13 3 62 76 139 205 l119 199 246 0 c135 0 486 -3 779 -7 l533 -6 111 -179
c61 -99 117 -185 124 -193 10 -9 85 -14 306 -17 161 -3 295 -4 297 -2 2 2 -87
148 -197 326 -110 178 -394 638 -632 1023 -238 385 -457 735 -488 778 -77 108
-138 162 -203 181 -50 15 -137 20 -169 10z m187 -849 c179 -270 373 -589 373
-612 0 -27 -945 -32 -972 -5 -9 9 -7 21 12 54 38 69 280 471 370 616 80 129
83 133 100 115 10 -10 63 -85 117 -168z"/>
<path d="M20755 2589 c-366 -19 -677 -102 -857 -227 -382 -266 -507 -1059
-252 -1597 52 -111 110 -194 193 -275 84 -83 138 -116 251 -154 200 -67 409
-96 745 -103 587 -13 971 59 1170 217 154 123 243 264 310 496 41 140 57 270
57 459 0 273 -45 486 -142 675 -87 168 -184 263 -355 345 -272 130 -667 188
-1120 164z m473 -510 c128 -14 272 -44 327 -68 25 -11 66 -42 93 -68 114 -114
145 -227 146 -528 2 -398 -63 -532 -298 -620 -156 -58 -341 -85 -591 -85 -296
0 -555 72 -679 190 -66 62 -97 129 -126 270 -19 91 -21 128 -17 280 4 152 8
187 31 263 34 114 65 173 115 223 79 80 188 121 381 143 109 12 505 13 618 0z"/>
<path d="M23125 2569 c-111 -11 -215 -81 -262 -177 l-28 -57 -3 -1037 -4
-1038 276 0 276 0 0 800 0 799 417 -422 c229 -232 581 -587 782 -788 336 -337
371 -368 422 -387 194 -71 432 2 500 153 18 38 19 95 19 1088 l0 1047 -270 0
-270 0 0 -800 0 -800 -772 775 c-691 694 -778 779 -834 806 -71 35 -153 48
-249 38z"/>
<path d="M9580 1406 l0 -1146 270 0 270 0 0 405 0 405 418 0 417 0 283 -393
c156 -215 286 -398 291 -405 6 -9 76 -12 319 -10 l312 3 -300 427 c-165 234
-300 429 -300 432 0 3 22 12 48 20 209 62 363 224 432 456 32 107 32 323 0
425 -44 140 -130 273 -224 348 -73 57 -222 125 -329 150 -89 20 -125 20 -999
24 l-908 4 0 -1145z m1754 640 c69 -21 124 -63 157 -121 25 -43 29 -60 29
-128 0 -113 -44 -186 -144 -240 -41 -22 -43 -22 -648 -25 l-608 -3 0 266 0
265 583 0 c478 0 592 -3 631 -14z"/>
<path d="M12690 1405 l0 -1145 265 0 265 0 0 1145 0 1145 -265 0 -265 0 0
-1145z"/>
<path d="M16812 2303 l3 -248 483 -3 482 -2 0 -895 0 -895 275 0 275 0 0 895
0 895 475 0 475 0 0 250 0 250 -1235 0 -1235 0 2 -247z"/>
</g>
</svg>
