<?xml version="1.0" standalone="no"?>
<!DOCTYPE svg PUBLIC "-//W3C//DTD SVG 20010904//EN"
 "http://www.w3.org/TR/2001/REC-SVG-20010904/DTD/svg10.dtd">
<svg version="1.0" xmlns="http://www.w3.org/2000/svg"
 width="1200.000000pt" height="1140.000000pt" viewBox="0 0 1200.000000 1140.000000"
 preserveAspectRatio="xMidYMid meet">

<g transform="translate(0.000000,1140.000000) scale(0.100000,-0.100000)"
fill="#000000" stroke="none">
<path d="M5715 11339 c-1787 -113 -3410 -1054 -4388 -2544 -439 -670 -729
-1424 -851 -2215 -51 -329 -60 -459 -60 -850 0 -459 25 -718 110 -1138 432
-2135 2054 -3830 4169 -4356 270 -67 512 -109 825 -143 234 -25 826 -25 1060
0 1190 129 2197 550 3095 1293 159 132 557 528 686 684 597 719 1003 1540
1198 2427 100 452 138 844 128 1327 -12 602 -102 1117 -296 1696 -290 864
-760 1610 -1414 2246 -1124 1094 -2691 1672 -4262 1573z m895 -503 c629 -74
1156 -227 1705 -495 803 -392 1472 -969 1977 -1706 253 -369 492 -854 638
-1294 503 -1514 289 -3148 -585 -4466 -619 -934 -1488 -1620 -2535 -2000
-1109 -402 -2306 -415 -3422 -36 -304 103 -721 295 -978 450 -382 231 -698
478 -1006 786 -717 716 -1196 1609 -1403 2615 -110 537 -133 1130 -65 1680 94
756 378 1522 802 2165 398 604 936 1133 1538 1516 712 452 1522 724 2384 798
165 15 791 6 950 -13z"/>
<path d="M5755 10379 c-191 -17 -371 -41 -574 -75 -113 -19 -205 -35 -206 -37
-10 -14 -1589 -5103 -1584 -5105 9 -4 1171 326 1179 335 4 4 213 692 465 1528
252 836 466 1547 476 1580 l19 61 247 71 c137 39 249 69 251 68 1 -1 -212
-712 -474 -1579 -262 -868 -473 -1580 -471 -1583 3 -2 1220 339 2704 760 2688
762 2698 765 2696 790 -1 13 -27 92 -58 173 -239 621 -602 1182 -1065 1644
-649 648 -1519 1128 -2355 1299 -296 60 -426 73 -805 76 -190 2 -390 -1 -445
-6z"/>
<path d="M4320 10066 c-471 -207 -892 -466 -1290 -796 -159 -131 -497 -469
-626 -625 -249 -302 -436 -589 -599 -920 -442 -897 -564 -1892 -359 -2915 19
-96 38 -178 42 -182 8 -8 1369 374 1381 388 11 12 1623 5104 1619 5114 -2 4
-77 -25 -168 -64z"/>
<path d="M10025 6668 c-308 -87 -1572 -445 -2809 -796 l-2250 -637 -583 -1815
c-320 -998 -583 -1820 -583 -1826 0 -15 328 -172 518 -249 939 -376 1886 -442
2855 -199 1174 294 2172 1001 2821 1996 583 895 841 2009 711 3069 -27 214
-93 570 -114 605 -4 8 -189 -41 -566 -148z m319 -318 c51 -24 91 -84 107 -158
25 -122 -17 -245 -125 -360 l-61 -67 22 -45 c34 -67 30 -126 -22 -307 -24 -86
-46 -158 -48 -160 -3 -2 -80 -25 -173 -52 -107 -31 -170 -44 -171 -37 -1 6 19
99 46 206 26 107 46 197 45 199 -2 2 -48 -9 -102 -24 l-99 -28 -48 -203 c-27
-112 -51 -208 -54 -213 -6 -9 -361 -115 -366 -109 -3 3 295 1208 300 1215 2 4
348 102 470 134 134 34 222 37 279 9z m-1071 -296 c-8 -36 -22 -93 -32 -127
l-16 -62 -180 -51 -180 -51 -28 -84 c-15 -46 -26 -89 -25 -95 2 -7 64 6 172
37 94 27 171 47 173 45 2 -2 -13 -64 -33 -139 l-36 -135 -169 -48 c-93 -26
-173 -51 -179 -54 -11 -7 -54 -190 -46 -197 2 -3 82 18 178 45 95 27 174 46
176 42 3 -8 -54 -269 -60 -275 -6 -7 -742 -214 -746 -210 -4 4 294 1169 307
1200 6 16 73 39 362 121 195 56 359 102 366 103 8 1 7 -17 -4 -65z m-913 -202
c0 -7 -647 -1299 -656 -1311 -4 -5 -338 -100 -341 -97 -3 3 -43 981 -43 1061
l0 60 138 39 c75 21 145 41 155 44 16 4 17 -9 18 -169 1 -96 4 -232 8 -303 l6
-129 185 357 184 356 66 20 c36 10 110 32 165 48 116 35 115 35 115 24z
m-1403 -360 c60 -31 109 -86 135 -151 19 -49 22 -74 22 -211 -1 -245 -61 -531
-151 -720 -92 -192 -287 -299 -526 -288 -78 3 -100 8 -145 33 -101 55 -151
149 -160 301 -12 225 70 595 173 780 74 133 191 220 357 264 99 27 235 23 295
-8z m-1171 -326 c67 -31 120 -94 144 -174 40 -130 22 -431 -40 -667 -70 -266
-154 -395 -309 -471 -132 -65 -316 -84 -423 -44 -64 24 -129 86 -157 151 -57
128 -46 373 29 654 85 320 199 468 418 539 103 33 105 34 202 35 70 1 94 -3
136 -23z"/>
<path d="M9954 6063 l-90 -25 -22 -96 c-12 -52 -21 -97 -19 -98 5 -5 211 57
239 72 62 32 84 85 57 137 -24 45 -38 45 -165 10z"/>
<path d="M6633 5181 c-85 -52 -147 -264 -160 -547 l-6 -130 30 -33 c24 -28 37
-34 72 -35 37 -1 47 4 76 35 40 44 68 117 95 246 23 114 47 386 37 425 -8 30
-51 58 -89 58 -13 0 -37 -9 -55 -19z"/>
<path d="M5485 4860 c-96 -39 -160 -238 -181 -561 -8 -124 5 -161 63 -185 76
-32 141 27 183 166 30 98 60 290 67 427 l6 121 -34 21 c-35 22 -70 26 -104 11z"/>
<path d="M3844 4922 l-582 -165 -232 -676 c-128 -372 -238 -690 -245 -706 -12
-30 -19 -33 -236 -93 -123 -34 -229 -62 -236 -62 -7 0 84 286 219 691 126 379
228 693 225 695 -5 5 -1163 -319 -1172 -328 -5 -5 41 -135 110 -308 341 -861
815 -1482 1576 -2063 l126 -96 518 1622 c582 1822 530 1657 519 1656 -5 -1
-271 -76 -590 -167z"/>
</g>
</svg>
