<?xml version="1.0" standalone="no"?>
<!DOCTYPE svg PUBLIC "-//W3C//DTD SVG 20010904//EN"
 "http://www.w3.org/TR/2001/REC-SVG-20010904/DTD/svg10.dtd">
<svg version="1.0" xmlns="http://www.w3.org/2000/svg"
 width="3840.000000pt" height="2160.000000pt" viewBox="0 0 3840.000000 2160.000000"
 preserveAspectRatio="xMidYMid meet">

<g transform="translate(0.000000,2160.000000) scale(0.100000,-0.100000)"
fill="#000000" stroke="none">
<path d="M5405 15269 c-147 -37 -220 -77 -307 -166 -111 -113 -154 -239 -145
-417 11 -220 108 -393 281 -501 96 -60 174 -79 296 -72 85 4 225 37 240 56 3
3 27 17 54 31 66 34 139 101 187 172 65 96 90 184 90 319 0 185 -52 309 -181
440 -72 72 -96 90 -155 113 -92 37 -95 37 -200 41 -62 2 -112 -3 -160 -16z"/>
<path d="M3375 14614 c-105 -27 -231 -89 -327 -163 -26 -20 -84 -63 -129 -96
-81 -59 -225 -175 -343 -278 -141 -123 -323 -314 -456 -481 -340 -429 -469
-623 -608 -921 -124 -267 -208 -477 -251 -630 -13 -44 -33 -114 -46 -155 -13
-41 -37 -145 -54 -231 -17 -85 -34 -166 -37 -180 -46 -219 -68 -745 -44 -1060
10 -129 34 -337 44 -389 3 -14 19 -94 35 -178 109 -560 348 -1150 657 -1622
161 -246 412 -533 661 -757 187 -168 227 -199 443 -348 305 -211 494 -323 667
-396 54 -23 103 -45 108 -49 10 -8 179 -70 200 -74 6 -1 16 -5 23 -9 6 -5 12
-5 12 -1 0 3 6 2 13 -4 7 -6 80 -30 163 -52 82 -23 154 -42 159 -44 6 -1 29
-8 51 -14 23 -7 109 -26 190 -43 82 -17 158 -32 169 -34 92 -20 141 -27 290
-44 94 -11 206 -22 250 -26 44 -3 121 -9 170 -12 283 -21 748 13 1110 82 77
15 328 76 342 84 10 5 21 9 26 10 4 1 8 1 10 2 1 0 9 2 17 4 37 9 208 64 235
76 17 7 32 13 35 14 3 1 16 6 30 12 14 6 51 20 82 31 120 45 341 153 538 264
135 77 183 107 304 193 54 38 118 84 142 100 110 77 276 225 454 404 164 164
235 245 373 421 63 80 170 241 246 368 297 502 490 1057 587 1692 8 58 17 114
19 125 24 154 45 453 45 644 0 184 -22 457 -45 571 -2 8 -19 94 -39 190 -47
236 -170 639 -245 801 -11 24 -32 73 -46 108 -42 102 -176 365 -249 490 -275
468 -585 823 -1090 1246 -193 161 -429 313 -544 350 -81 26 -228 18 -302 -16
-159 -74 -259 -280 -221 -456 24 -112 152 -272 305 -377 213 -149 362 -274
546 -462 107 -110 237 -253 288 -319 227 -294 411 -639 542 -1018 104 -302
158 -559 198 -932 9 -88 9 -567 0 -660 -12 -123 -49 -367 -68 -455 -85 -392
-264 -817 -518 -1230 -122 -197 -223 -322 -426 -526 -140 -139 -206 -198 -386
-342 -19 -16 -93 -68 -165 -117 -115 -79 -157 -105 -280 -174 -86 -49 -333
-172 -375 -186 -3 -1 -18 -7 -35 -14 -85 -36 -263 -95 -365 -122 -63 -16 -124
-32 -135 -35 -11 -3 -29 -7 -40 -10 -11 -2 -42 -8 -70 -14 -158 -34 -466 -62
-665 -62 -201 1 -465 25 -656 61 -92 17 -431 103 -441 111 -2 2 -6 3 -10 5 -5
1 -15 5 -23 8 -8 4 -51 18 -95 32 -44 15 -108 39 -143 56 -35 16 -65 29 -67
29 -2 0 -25 10 -52 22 -26 11 -52 22 -58 24 -43 11 -466 256 -503 291 -8 7
-23 18 -35 25 -62 33 -247 183 -402 326 -444 411 -779 983 -960 1638 -69 250
-103 439 -135 749 -12 111 -9 592 4 690 17 135 55 367 73 445 21 94 101 357
125 410 11 25 30 73 43 107 57 148 243 487 393 712 118 177 184 256 409 485
204 208 233 232 533 453 224 164 322 325 307 505 -12 140 -131 294 -259 333
-54 17 -186 28 -223 19z"/>
<path d="M5398 13181 c-56 -18 -156 -82 -193 -122 -20 -23 -50 -69 -66 -103
-55 -118 -59 -153 -69 -551 -12 -453 -3 -3705 11 -3896 10 -155 30 -226 85
-306 84 -123 250 -195 410 -179 82 8 131 26 203 75 73 50 124 118 163 219 28
73 30 89 39 292 10 229 6 4060 -4 4077 -3 5 -7 29 -8 54 -7 179 -105 332 -264
409 -64 32 -78 35 -175 37 -58 1 -117 -2 -132 -6z"/>
<path d="M25298 12847 c-136 -16 -273 -45 -338 -70 -8 -3 -53 -18 -100 -33
-47 -15 -94 -33 -105 -40 -11 -7 -24 -14 -30 -15 -5 -1 -46 -19 -90 -40 -379
-184 -657 -493 -859 -959 -32 -74 -107 -296 -130 -385 -14 -56 -62 -303 -71
-370 -32 -226 -33 -594 -1 -805 44 -297 115 -541 221 -765 208 -439 506 -718
960 -900 11 -4 25 -9 32 -11 7 -1 27 -10 45 -19 26 -13 130 -45 253 -79 6 -1
28 -8 50 -14 89 -25 380 -66 545 -78 331 -23 813 14 1050 81 8 2 76 20 150 40
180 48 218 68 243 125 19 43 20 59 13 310 -7 282 -11 342 -31 413 -6 24 -12
27 -46 27 -39 0 -264 -46 -284 -58 -5 -4 -14 -8 -20 -9 -14 -4 -336 -93 -360
-100 -90 -25 -209 -35 -430 -36 -226 -1 -322 7 -469 38 -92 19 -303 82 -321
95 -5 4 -41 21 -80 37 -168 70 -377 246 -467 393 -93 151 -148 335 -148 496
l0 63 58 7 c63 8 1375 11 2142 4 267 -3 492 -3 500 0 93 31 143 96 161 210 22
142 -5 672 -41 809 -5 20 -21 92 -35 161 -49 231 -160 518 -272 698 -217 351
-497 575 -879 706 -165 56 -286 77 -502 85 -134 5 -204 2 -314 -12z m390 -783
c46 -8 91 -19 100 -24 10 -6 48 -21 85 -35 223 -81 445 -314 528 -552 55 -159
87 -368 73 -469 l-6 -41 -671 2 c-370 1 -822 3 -1006 4 l-334 1 6 113 c12 201
69 385 174 559 57 96 193 243 266 289 28 18 55 37 58 42 8 10 219 98 219 90 0
-3 6 -1 13 5 11 9 100 25 197 36 57 6 209 -4 298 -20z"/>
<path d="M29710 12854 c-174 -15 -300 -34 -385 -57 -130 -36 -371 -144 -509
-229 -213 -132 -410 -407 -499 -698 -48 -155 -57 -203 -64 -344 -18 -357 108
-692 351 -931 178 -176 379 -276 806 -401 8 -2 92 -22 185 -44 94 -23 177 -42
185 -44 8 -2 80 -20 160 -40 80 -20 172 -46 205 -59 33 -13 81 -32 107 -41
117 -43 267 -169 298 -251 37 -98 30 -266 -15 -356 -47 -92 -158 -188 -265
-229 -30 -11 -64 -25 -75 -30 -11 -6 -29 -12 -40 -15 -11 -3 -46 -11 -78 -19
-218 -54 -779 -44 -1062 19 -151 34 -287 67 -350 85 -84 25 -86 25 -105 33
-31 13 -176 46 -214 49 -37 3 -39 1 -52 -36 -24 -67 -34 -201 -34 -446 0 -168
4 -242 13 -260 18 -37 120 -85 253 -121 64 -17 126 -33 138 -35 11 -2 32 -7
46 -10 180 -43 673 -92 890 -88 267 4 639 46 775 88 6 1 37 11 70 20 110 32
220 69 231 77 5 4 39 21 75 36 162 70 339 204 456 344 299 356 355 1003 120
1389 -135 223 -386 418 -658 511 -52 18 -99 36 -105 41 -7 5 -81 27 -165 49
-85 22 -161 42 -169 44 -8 3 -91 23 -185 45 -93 22 -177 42 -185 45 -8 2 -62
18 -120 34 -58 17 -112 34 -120 37 -8 4 -19 8 -25 9 -5 2 -53 23 -105 48 -158
75 -266 178 -309 293 -94 251 16 520 259 632 41 18 84 38 95 43 140 64 671 61
1010 -6 21 -4 299 -48 420 -66 39 -6 111 -12 162 -14 86 -2 92 -1 97 19 27
108 35 524 13 633 -16 77 -36 99 -101 118 -42 12 -270 58 -351 70 -11 2 -50 8
-87 14 -190 31 -820 60 -988 45z"/>
<path d="M12019 12751 c-94 -8 -124 -27 -140 -83 -17 -66 -5 -4207 13 -4245 7
-16 31 -37 53 -48 37 -19 60 -20 315 -20 269 0 413 8 439 24 33 21 35 177 36
2243 l0 2048 -30 30 c-23 23 -45 33 -90 40 -77 13 -497 21 -596 11z"/>
<path d="M34513 12750 c-40 -9 -62 -26 -76 -60 -14 -34 -27 -461 -17 -589 9
-114 21 -138 76 -147 16 -3 117 -4 224 -2 671 8 772 1 801 -54 22 -42 27 -573
16 -1833 -7 -896 -8 -1350 0 -1488 5 -108 12 -199 14 -201 14 -14 220 -29 427
-32 195 -3 257 0 315 13 39 8 77 20 83 25 7 5 16 34 20 66 5 31 9 806 9 1722
0 918 4 1686 9 1712 8 45 11 48 50 56 22 5 244 9 491 8 411 -1 454 1 497 17
80 31 82 41 74 382 -7 303 -13 350 -46 380 -19 17 -82 18 -1413 21 -765 2
-1421 5 -1457 7 -36 3 -80 1 -97 -3z"/>
<path d="M13993 12734 c-17 -9 -36 -28 -43 -43 -8 -21 -11 -569 -12 -2118 -1
-1935 1 -2094 16 -2141 15 -43 22 -52 48 -57 68 -15 245 -23 443 -20 221 4
313 15 331 40 6 8 15 50 20 93 5 42 9 827 9 1744 0 1667 0 1667 20 1688 12 11
32 23 45 26 44 11 291 20 440 17 637 -13 892 -35 1050 -89 8 -3 16 -5 17 -5 2
1 38 -17 82 -40 132 -67 238 -178 303 -319 35 -75 85 -266 100 -380 8 -69 12
-436 13 -1345 0 -687 4 -1272 9 -1300 13 -83 23 -101 66 -114 44 -13 567 -19
640 -7 103 17 117 25 126 70 4 22 8 500 9 1061 1 561 5 1081 9 1155 8 142 -7
545 -25 678 -32 245 -119 513 -218 676 -143 233 -374 437 -623 550 -65 29
-103 46 -118 51 -3 1 -17 7 -32 13 -54 22 -242 69 -353 87 -232 39 -430 45
-1415 45 -818 0 -929 -2 -957 -16z"/>
<path d="M19004 12739 c-16 -5 -41 -20 -55 -35 l-24 -26 -3 -1891 c-3 -1836 3
-2376 24 -2397 49 -49 874 -49 1629 0 88 6 196 15 240 21 87 11 421 92 470
114 17 8 74 30 128 50 139 51 363 174 472 258 104 80 132 104 196 167 213 212
380 519 478 880 50 184 58 225 76 390 26 236 16 566 -24 775 -25 132 -84 324
-141 460 -148 353 -410 666 -729 872 -90 58 -304 166 -371 188 -30 10 -61 22
-67 28 -7 5 -13 6 -13 2 0 -4 -7 -2 -15 5 -8 7 -15 9 -15 5 0 -4 -6 -3 -13 3
-18 16 -217 64 -402 98 -89 16 -177 25 -326 34 -213 12 -1472 12 -1515 -1z
m1611 -829 c103 -12 241 -38 264 -50 9 -5 52 -20 96 -35 149 -50 299 -149 423
-279 92 -97 152 -190 217 -336 67 -150 100 -277 123 -470 14 -114 6 -382 -13
-480 -3 -14 -10 -52 -16 -85 -12 -69 -48 -205 -58 -220 -4 -5 -17 -37 -30 -70
-34 -87 -136 -237 -229 -336 -114 -121 -203 -180 -412 -272 -54 -24 -143 -44
-270 -62 -63 -9 -140 -20 -170 -25 -82 -12 -143 -15 -380 -15 -235 0 -279 2
-326 18 -31 10 -31 11 -40 101 -11 131 -12 2526 0 2554 12 29 63 60 118 72 55
12 584 5 703 -10z"/>
<path d="M32600 12737 c-38 -19 -51 -58 -59 -175 -7 -93 -4 -3774 2 -3937 5
-121 20 -235 31 -243 30 -24 150 -35 386 -35 247 0 390 13 408 37 14 17 29
167 33 321 7 251 2 3912 -5 3959 -13 82 -7 81 -416 84 -275 2 -361 -1 -380
-11z"/>
</g>
</svg>
