<?xml version="1.0" encoding="UTF-8"?>
<!DOCTYPE svg PUBLIC "-//W3C//DTD SVG 1.1//EN" "http://www.w3.org/Graphics/SVG/1.1/DTD/svg11.dtd">
<svg xmlns="http://www.w3.org/2000/svg" version="1.1" width="1800px" height="948px" style="shape-rendering:geometricPrecision; text-rendering:geometricPrecision; image-rendering:optimizeQuality; fill-rule:evenodd; clip-rule:evenodd" xmlns:xlink="http://www.w3.org/1999/xlink">
<g><path style="opacity:0.999" fill="#c8135c" d="M 449.5,94.5 C 583.333,88.3561 692.499,136.689 777,239.5C 852.786,342.118 873.453,455.118 839,578.5C 803.918,684.523 736.085,761.689 635.5,810C 522.632,858.293 411.632,854.293 302.5,798C 187.636,731.533 122.47,632.033 107,499.5C 100.577,367.553 147.743,259.386 248.5,175C 307.973,129.452 374.973,102.618 449.5,94.5 Z"/></g>
<g><path style="opacity:1" fill="#fefdfd" d="M 761.5,504.5 C 763.221,497.747 763.888,490.747 763.5,483.5C 699.167,483.5 634.833,483.5 570.5,483.5C 570.5,474.167 570.5,464.833 570.5,455.5C 644.5,455.5 718.5,455.5 792.5,455.5C 792.5,465.167 792.5,474.833 792.5,484.5C 784.406,594.904 733.739,679.404 640.5,738C 550.384,788.603 457.05,795.269 360.5,758C 271.214,718.045 211.38,651.545 181,558.5C 169.885,519.559 166.051,479.892 169.5,439.5C 170.889,434.731 171.556,429.731 171.5,424.5C 183.998,344.649 220.998,278.815 282.5,227C 344.567,177.256 415.567,153.756 495.5,156.5C 495.5,166.167 495.5,175.833 495.5,185.5C 393.288,183.251 311.454,222.585 250,303.5C 196.301,381.734 183.301,466.4 211,557.5C 244.034,649.868 307.2,711.035 400.5,741C 501.787,766.817 592.12,746.15 671.5,679C 722.494,631.85 752.494,573.684 761.5,504.5 Z"/></g>
<g><path style="opacity:0.989" fill="#585858" d="M 1501.5,272.5 C 1546.03,268.173 1588.03,276.34 1627.5,297C 1665.45,319.321 1686.95,352.488 1692,396.5C 1692.5,400.152 1692.67,403.818 1692.5,407.5C 1653.5,407.667 1614.5,407.5 1575.5,407C 1570.5,377.175 1552.84,361.675 1522.5,360.5C 1494.88,362.286 1475.71,375.952 1465,401.5C 1454.2,430.912 1450.53,461.245 1454,492.5C 1455.79,513.544 1461.79,533.21 1472,551.5C 1491.34,577.725 1516.84,586.225 1548.5,577C 1565.86,569.968 1577.36,557.468 1583,539.5C 1585.18,532.306 1587.34,525.139 1589.5,518C 1565.5,517.5 1541.5,517.333 1517.5,517.5C 1517.5,490.833 1517.5,464.167 1517.5,437.5C 1575.83,437.5 1634.17,437.5 1692.5,437.5C 1692.5,510.5 1692.5,583.5 1692.5,656.5C 1660.5,656.5 1628.5,656.5 1596.5,656.5C 1596.67,644.829 1596.5,633.162 1596,621.5C 1577.33,646.094 1552.5,660.261 1521.5,664C 1433.58,671.726 1375.42,633.893 1347,550.5C 1332.12,498.254 1331.78,445.921 1346,393.5C 1364.2,336.632 1401.7,299.132 1458.5,281C 1472.8,277.288 1487.13,274.455 1501.5,272.5 Z"/></g>
<g><path style="opacity:0.981" fill="#595959" d="M 1040.5,281.5 C 1077.83,281.5 1115.17,281.5 1152.5,281.5C 1152.5,374.833 1152.5,468.167 1152.5,561.5C 1207.17,561.5 1261.83,561.5 1316.5,561.5C 1316.5,593.167 1316.5,624.833 1316.5,656.5C 1224.5,656.5 1132.5,656.5 1040.5,656.5C 1040.5,531.5 1040.5,406.5 1040.5,281.5 Z"/></g>
<g><path style="opacity:1" fill="#fefdfd" d="M 355.5,304.5 C 378.49,303.687 394.657,313.687 404,334.5C 409.956,356.972 403.456,374.805 384.5,388C 359.551,400.043 339.051,394.876 323,372.5C 310.956,347.56 316.123,327.06 338.5,311C 343.895,307.775 349.561,305.608 355.5,304.5 Z"/></g>
<g><path style="opacity:1" fill="#fefefe" d="M 495.5,305.5 C 495.5,404.833 495.5,504.167 495.5,603.5C 520.167,603.5 544.833,603.5 569.5,603.5C 569.5,613.167 569.5,622.833 569.5,632.5C 535.167,632.5 500.833,632.5 466.5,632.5C 466.5,523.5 466.5,414.5 466.5,305.5C 476.167,305.5 485.833,305.5 495.5,305.5 Z"/></g>
<g><path style="opacity:1" fill="#eaa8c3" d="M 495.5,304.5 C 495.5,304.833 495.5,305.167 495.5,305.5C 485.833,305.5 476.167,305.5 466.5,305.5C 466.5,414.5 466.5,523.5 466.5,632.5C 465.501,523.335 465.167,414.001 465.5,304.5C 475.5,304.5 485.5,304.5 495.5,304.5 Z"/></g>
<g><path style="opacity:1" fill="#df77a1" d="M 495.5,304.5 C 496.499,403.665 496.833,502.999 496.5,602.5C 521.006,602.169 545.339,602.502 569.5,603.5C 544.833,603.5 520.167,603.5 495.5,603.5C 495.5,504.167 495.5,404.833 495.5,305.5C 495.5,305.167 495.5,304.833 495.5,304.5 Z"/></g>
<g><path style="opacity:1" fill="#f2c6d7" d="M 171.5,424.5 C 171.556,429.731 170.889,434.731 169.5,439.5C 169.444,434.269 170.111,429.269 171.5,424.5 Z"/></g>
<g><path style="opacity:1" fill="#f5d8e4" d="M 570.5,455.5 C 644.665,454.501 718.998,454.167 793.5,454.5C 793.827,464.681 793.494,474.681 792.5,484.5C 792.5,474.833 792.5,465.167 792.5,455.5C 718.5,455.5 644.5,455.5 570.5,455.5 Z"/></g>
<g><path style="opacity:1" fill="#cf3371" d="M 570.5,483.5 C 634.833,483.5 699.167,483.5 763.5,483.5C 763.888,490.747 763.221,497.747 761.5,504.5C 762.139,497.852 762.473,491.186 762.5,484.5C 698.331,484.832 634.331,484.499 570.5,483.5 Z"/></g>
</svg>
