<?xml version="1.0" standalone="no"?>
<!DOCTYPE svg PUBLIC "-//W3C//DTD SVG 20010904//EN"
 "http://www.w3.org/TR/2001/REC-SVG-20010904/DTD/svg10.dtd">
<svg version="1.0" xmlns="http://www.w3.org/2000/svg"
 width="3840.000000pt" height="2400.000000pt" viewBox="0 0 3840.000000 2400.000000"
 preserveAspectRatio="xMidYMid meet">

<g transform="translate(0.000000,2400.000000) scale(0.100000,-0.100000)"
fill="#000000" stroke="none">
<path d="M34300 15505 c-243 -31 -472 -99 -673 -202 -370 -189 -652 -457 -884
-838 -92 -152 -156 -291 -237 -515 -46 -130 -119 -460 -135 -620 -9 -82 -10
-509 -2 -595 39 -426 152 -822 318 -1119 351 -628 907 -977 1666 -1047 162
-15 502 -7 657 15 429 62 835 259 1040 503 24 29 48 49 52 45 14 -14 14 -619
0 -702 -37 -211 -131 -434 -237 -562 -107 -131 -233 -216 -410 -278 -220 -78
-538 -95 -813 -45 -257 48 -442 172 -531 356 -22 46 -47 109 -54 139 l-14 55
-69 0 c-79 0 -349 -14 -379 -20 -11 -2 -78 -6 -150 -10 -240 -10 -699 -34
-787 -41 l-87 -7 5 -46 c37 -331 164 -597 404 -845 305 -315 739 -539 1260
-649 241 -51 349 -61 650 -61 321 1 506 15 750 55 629 104 1039 295 1357 632
200 213 347 506 421 842 74 333 73 308 70 3045 l-3 2395 -660 0 -660 1 -5
-265 c-3 -163 -9 -265 -15 -267 -5 -2 -32 29 -60 68 -113 160 -349 335 -585
433 -167 70 -454 136 -675 155 -159 13 -395 11 -525 -5z m890 -1159 c182 -42
293 -93 437 -199 194 -143 355 -385 431 -647 45 -154 53 -207 59 -385 7 -196
-7 -323 -53 -504 -131 -514 -468 -847 -944 -936 -116 -22 -367 -25 -455 -7
-455 98 -789 446 -916 955 -70 279 -43 656 68 957 125 338 324 569 603 699 71
33 230 77 331 91 111 16 321 4 439 -24z"/>
<path d="M29290 15474 c-55 -5 -299 -35 -320 -39 -257 -53 -411 -105 -636
-215 -256 -125 -451 -267 -655 -477 -296 -305 -517 -690 -637 -1108 -93 -325
-125 -555 -125 -885 0 -201 4 -260 27 -412 74 -501 237 -906 512 -1274 417
-559 1054 -901 1809 -974 126 -12 432 -11 580 1 307 26 676 114 900 214 260
116 447 240 639 425 183 176 323 376 461 655 81 166 154 349 143 360 -2 2
-239 13 -528 24 -289 12 -554 23 -590 26 -36 3 -117 8 -182 10 l-116 5 -31
-65 c-77 -166 -254 -332 -468 -438 -450 -226 -1037 -133 -1388 218 -207 206
-339 506 -348 790 l-2 80 1859 3 c1473 2 1862 5 1868 15 11 18 10 382 -2 517
-23 248 -92 585 -162 789 -202 588 -540 1045 -997 1352 -128 86 -407 223 -551
272 -58 20 -157 47 -220 62 -148 33 -156 34 -215 41 -27 3 -77 9 -110 15 -65
10 -442 20 -515 13z m390 -1094 c81 -13 237 -63 310 -100 147 -75 311 -222
409 -366 100 -148 186 -358 198 -479 l6 -65 -1112 0 c-917 0 -1113 2 -1117 13
-6 18 22 156 48 232 31 89 109 240 169 325 98 140 245 267 397 344 69 35 222
84 297 95 85 12 318 13 395 1z"/>
<path d="M16230 15383 c-461 -44 -876 -178 -1178 -380 -228 -153 -399 -343
-512 -571 -121 -241 -170 -461 -170 -758 0 -365 110 -639 355 -880 286 -283
706 -458 1354 -565 102 -17 191 -32 196 -33 49 -11 76 -16 110 -21 338 -48
820 -171 915 -234 14 -9 37 -23 53 -31 15 -7 51 -39 81 -69 125 -132 149 -358
55 -541 -27 -53 -112 -144 -178 -188 -360 -247 -941 -275 -1363 -66 -113 55
-169 94 -244 169 -132 131 -204 283 -222 471 l-7 69 -624 3 -624 2 6 -102 c29
-521 304 -975 777 -1285 47 -30 96 -63 110 -72 34 -24 288 -143 385 -181 65
-26 221 -74 308 -96 9 -2 25 -6 35 -9 56 -14 238 -47 344 -62 178 -25 642 -24
823 1 366 51 648 133 930 270 411 201 697 488 839 842 92 228 121 400 113 674
-3 112 -11 219 -21 270 -79 404 -292 680 -691 898 -44 24 -102 53 -130 64 -27
11 -63 26 -80 33 -218 97 -725 232 -1015 271 -122 16 -588 98 -705 124 -209
46 -389 113 -475 178 -125 93 -169 202 -149 363 37 298 349 481 844 494 173 4
447 -36 550 -80 17 -7 52 -23 78 -34 81 -34 182 -108 250 -181 103 -111 153
-227 166 -380 l6 -75 618 -3 c509 -2 617 0 617 11 0 49 -35 247 -61 343 -37
141 -83 256 -156 394 -123 234 -284 410 -518 569 -130 88 -187 120 -317 175
-238 101 -504 170 -768 200 -113 13 -607 19 -710 9z"/>
<path d="M21735 15335 c-320 -41 -602 -160 -857 -364 -109 -86 -249 -230 -336
-346 -41 -55 -79 -101 -83 -103 -5 -2 -9 152 -9 342 l0 346 -660 0 -660 0 0
-2515 0 -2515 693 2 692 3 5 1570 5 1570 28 110 c59 229 185 432 342 552 208
159 462 213 738 155 305 -64 489 -285 556 -667 26 -148 31 -421 31 -1828 l0
-1467 690 2 689 3 4 1545 c4 1706 1 1618 68 1835 114 366 357 574 722 615 166
19 389 -20 529 -92 137 -71 255 -220 311 -393 31 -95 57 -246 67 -393 6 -88
10 -748 10 -1634 l0 -1488 690 0 691 0 -4 1848 c-3 2043 2 1878 -67 2152 -54
212 -152 424 -266 575 -111 148 -329 327 -484 399 -290 133 -586 193 -950 194
-215 0 -361 -22 -550 -86 -348 -116 -640 -332 -882 -651 -32 -42 -58 -79 -58
-83 0 -5 -6 -8 -14 -8 -7 0 -32 37 -55 81 -67 132 -130 217 -236 325 -279 282
-660 421 -1150 421 -77 0 -185 -5 -240 -12z"/>
<path d="M5625 15059 c-143 -19 -369 -90 -510 -162 -400 -201 -721 -582 -839
-997 -54 -190 -68 -291 -68 -480 1 -538 233 -1000 669 -1330 130 -98 315 -191
491 -247 67 -21 121 -42 119 -47 -2 -5 -34 -16 -72 -26 -139 -36 -335 -126
-471 -216 -316 -211 -574 -558 -669 -899 -40 -145 -41 -145 -81 -8 -118 406
-398 759 -770 967 -184 103 -420 182 -614 205 -114 13 -400 6 -485 -13 -283
-61 -504 -155 -690 -294 -268 -199 -454 -445 -574 -757 -62 -162 -111 -417
-111 -580 0 -92 26 -284 55 -400 117 -475 450 -880 900 -1095 428 -205 985
-205 1409 0 436 210 752 577 880 1023 37 126 40 129 60 60 46 -151 62 -196
112 -299 135 -284 350 -525 616 -690 152 -94 361 -181 503 -209 156 -31 226
-38 375 -38 150 0 204 6 375 38 76 14 244 74 337 121 301 149 523 347 686 609
93 151 167 318 198 450 10 41 20 75 23 75 3 0 23 -55 44 -123 92 -291 234
-518 454 -727 303 -287 702 -443 1128 -443 146 0 184 4 380 39 44 7 213 62
260 84 28 12 68 31 90 41 205 93 438 286 596 494 146 193 260 452 306 699 24
128 24 456 0 582 -93 494 -402 924 -832 1156 -113 62 -250 119 -347 144 -62
17 -110 44 -78 44 33 0 238 73 338 121 435 205 740 566 882 1047 12 39 26 72
30 72 4 0 13 -24 20 -52 35 -151 121 -339 231 -504 89 -134 280 -328 419 -427
172 -122 426 -229 645 -274 127 -25 481 -25 610 1 134 26 295 81 430 147 399
193 726 579 850 1004 33 114 34 115 55 250 17 104 14 366 -5 482 -89 536 -416
982 -898 1224 -94 48 -303 119 -427 146 -123 26 -498 26 -620 -1 -126 -27
-333 -97 -430 -146 -408 -205 -726 -586 -848 -1017 -14 -51 -29 -93 -33 -93
-4 0 -19 39 -33 88 -86 280 -203 484 -395 685 -228 239 -529 405 -866 479
-116 25 -412 36 -540 19 -233 -30 -504 -130 -690 -254 -357 -238 -592 -566
-705 -987 -6 -23 -15 -39 -20 -34 -4 5 -18 45 -30 89 -44 161 -141 360 -249
515 -25 36 -104 124 -176 196 -237 239 -503 383 -840 456 -104 23 -442 33
-560 17z m1939 -2248 c80 -207 199 -385 370 -557 141 -141 255 -225 421 -309
116 -59 321 -135 364 -135 47 0 15 -18 -79 -44 -261 -73 -514 -225 -715 -430
-200 -203 -357 -476 -420 -728 -16 -61 -35 -83 -35 -40 0 35 -80 253 -126 343
-178 355 -465 629 -824 784 -55 24 -135 53 -178 65 -138 37 -139 39 -42 64
227 60 434 170 637 339 238 198 427 490 509 782 14 50 28 97 31 105 3 8 15
-21 28 -65 12 -44 39 -122 59 -174z"/>
</g>
</svg>
