<?xml version="1.0" encoding="UTF-8"?>
<!DOCTYPE svg PUBLIC "-//W3C//DTD SVG 1.1//EN" "http://www.w3.org/Graphics/SVG/1.1/DTD/svg11.dtd">
<svg xmlns="http://www.w3.org/2000/svg" version="1.1" width="2750px" height="895px" style="shape-rendering:geometricPrecision; text-rendering:geometricPrecision; image-rendering:optimizeQuality; fill-rule:evenodd; clip-rule:evenodd" xmlns:xlink="http://www.w3.org/1999/xlink">
<g><path style="opacity:0.991" fill="#000000" d="M 2233.5,125.5 C 2380.59,122.272 2445.26,193.939 2427.5,340.5C 2379.17,340.5 2330.83,340.5 2282.5,340.5C 2282.67,311.498 2282.5,282.498 2282,253.5C 2278.4,228.918 2264.24,218.418 2239.5,222C 2226.73,225.438 2218.56,233.605 2215,246.5C 2209.47,269.433 2209.14,292.433 2214,315.5C 2217.76,328.353 2224.09,339.687 2233,349.5C 2253.94,369.545 2276.78,387.045 2301.5,402C 2323.1,414.603 2344.43,427.603 2365.5,441C 2412.74,475.959 2437.57,523.126 2440,582.5C 2443,619.851 2438.33,656.184 2426,691.5C 2407.8,735.37 2376.3,765.203 2331.5,781C 2284.63,795.672 2237.3,797.339 2189.5,786C 2120.03,765.866 2080.19,720.033 2070,648.5C 2069.5,623.502 2069.33,598.502 2069.5,573.5C 2117.5,573.5 2165.5,573.5 2213.5,573.5C 2213.33,600.835 2213.5,628.169 2214,655.5C 2215.19,672.025 2224.02,681.525 2240.5,684C 2263.86,687.739 2278.7,678.239 2285,655.5C 2291.66,629.925 2290.99,604.592 2283,579.5C 2275.53,562.357 2264.03,548.524 2248.5,538C 2229.66,527.413 2210.66,517.079 2191.5,507C 2168.3,492.902 2145.96,477.568 2124.5,461C 2106.21,446.383 2092.04,428.549 2082,407.5C 2074.14,386.543 2069.47,364.876 2068,342.5C 2062.55,299.699 2067.89,258.365 2084,218.5C 2106.88,171.29 2144.05,142.124 2195.5,131C 2208.22,128.496 2220.89,126.663 2233.5,125.5 Z"/></g>
<g><path style="opacity:0.991" fill="#000000" d="M 1845.5,126.5 C 1877.42,124.942 1908.75,128.442 1939.5,137C 1999.8,156.302 2033.3,197.469 2040,260.5C 2040.5,287.498 2040.67,314.498 2040.5,341.5C 1992.17,341.5 1943.83,341.5 1895.5,341.5C 1895.67,312.498 1895.5,283.498 1895,254.5C 1892.6,233.934 1881.1,223.268 1860.5,222.5C 1844.79,222.28 1834.29,229.613 1829,244.5C 1824.9,258.018 1823.06,271.851 1823.5,286C 1822.16,309.634 1828.99,330.468 1844,348.5C 1852.23,357.402 1861.07,365.569 1870.5,373C 1884.82,383.494 1899.49,393.494 1914.5,403C 1936.17,415.498 1957.5,428.498 1978.5,442C 2026.03,477.22 2050.87,524.72 2053,584.5C 2056.37,624.222 2050.7,662.555 2036,699.5C 2015.34,742.815 1981.84,770.982 1935.5,784C 1886.61,797.292 1837.94,796.625 1789.5,782C 1736.37,763.201 1702.2,726.701 1687,672.5C 1685.15,664.583 1683.82,656.583 1683,648.5C 1682.5,623.502 1682.33,598.502 1682.5,573.5C 1730.5,573.5 1778.5,573.5 1826.5,573.5C 1826.52,601.541 1826.52,629.375 1826.5,657C 1828.79,672.62 1837.79,681.62 1853.5,684C 1878.91,687.594 1894.08,676.761 1899,651.5C 1912.83,596.359 1894.99,555.526 1845.5,529C 1804.16,510.012 1766.16,486.012 1731.5,457C 1707.72,436.289 1692.56,410.456 1686,379.5C 1678.01,338.194 1677.68,296.86 1685,255.5C 1701.5,187.333 1744,145.833 1812.5,131C 1823.6,129.151 1834.6,127.651 1845.5,126.5 Z"/></g>
<g><path style="opacity:0.993" fill="#000000" d="M 132.5,141.5 C 248.5,141.5 364.5,141.5 480.5,141.5C 480.98,177.228 480.48,212.895 479,248.5C 416.559,389.049 354.392,529.716 292.5,670.5C 357.497,671.5 422.497,671.833 487.5,671.5C 487.83,707.74 487.496,743.906 486.5,780C 368.5,780.5 250.5,780.667 132.5,780.5C 132.333,743.832 132.5,707.165 133,670.5C 196.705,528.259 260.538,386.092 324.5,244C 260.501,243.5 196.501,243.333 132.5,243.5C 132.5,209.5 132.5,175.5 132.5,141.5 Z"/></g>
<g><path style="opacity:0.993" fill="#000000" d="M 547.5,141.5 C 632.5,141.5 717.5,141.5 802.5,141.5C 821.593,354.526 840.927,567.526 860.5,780.5C 813.167,780.5 765.833,780.5 718.5,780.5C 716.555,758.157 714.555,735.823 712.5,713.5C 689.5,713.5 666.5,713.5 643.5,713.5C 641.778,735.829 640.111,758.163 638.5,780.5C 595.171,781.235 551.837,781.568 508.5,781.5C 521.422,568.162 534.422,354.829 547.5,141.5 Z M 675.5,292.5 C 685.454,398.663 695.121,504.997 704.5,611.5C 686.833,611.5 669.167,611.5 651.5,611.5C 659.075,505.111 667.075,398.778 675.5,292.5 Z"/></g>
<g><path style="opacity:0.993" fill="#000000" d="M 889.5,141.5 C 935.833,141.5 982.167,141.5 1028.5,141.5C 1053.23,221.512 1078.06,301.512 1103,381.5C 1103.5,301.501 1103.67,221.501 1103.5,141.5C 1151.17,141.5 1198.83,141.5 1246.5,141.5C 1246.5,354.5 1246.5,567.5 1246.5,780.5C 1199.59,780.83 1152.76,780.497 1106,779.5C 1082.67,701.5 1059.33,623.5 1036,545.5C 1035.5,623.833 1035.33,702.166 1035.5,780.5C 986.833,780.5 938.167,780.5 889.5,780.5C 889.5,567.5 889.5,354.5 889.5,141.5 Z"/></g>
<g><path style="opacity:0.994" fill="#000000" d="M 1291.5,141.5 C 1340.17,141.167 1388.84,141.5 1437.5,142.5C 1437.71,143.086 1438.04,143.586 1438.5,144C 1438.19,313.471 1437.85,483.138 1437.5,653C 1439.01,674.165 1450.51,684.665 1472,684.5C 1485.52,684.739 1496.19,679.406 1504,668.5C 1505.74,665.043 1506.74,661.377 1507,657.5C 1507.5,485.5 1507.67,313.5 1507.5,141.5C 1555.5,141.5 1603.5,141.5 1651.5,141.5C 1651.67,317.167 1651.5,492.834 1651,668.5C 1645.24,713.227 1623.08,747.06 1584.5,770C 1548.94,788.89 1510.94,798.056 1470.5,797.5C 1421.95,797.463 1378.95,782.297 1341.5,752C 1313.86,728.355 1297.36,698.522 1292,662.5C 1291.5,488.834 1291.33,315.167 1291.5,141.5 Z"/></g>
<g><path style="opacity:0.991" fill="#000000" d="M 2464.5,141.5 C 2512.83,141.5 2561.17,141.5 2609.5,141.5C 2609.5,354.833 2609.5,568.167 2609.5,781.5C 2561.17,781.5 2512.83,781.5 2464.5,781.5C 2464.5,568.167 2464.5,354.833 2464.5,141.5 Z"/></g>
</svg>
